# xmcd CD database file
#
# Track frame offsets:
#	150
#	22832
#	45568
#	78630
#	103510
#	121584
#	168237
#
# Disc length: 2679 seconds
#
# Revision: 1
# Processed by: cddbd v1.5.2PL0 Copyright (c) Steve Scherf et al.
# Submitted via: CDex 1.70beta2
#
DISCID=440a7507
DTITLE=Doug Hammond Trio - Singing smiles
DYEAR=1900
DGENRE=Jazz
TTITLE0=Singing Smiles
TTITLE1=Treat for Reggie
TTITLE2=Ebony soul
TTITLE3=Real Deal
TTITLE4=To Cozy and Max
TTITLE5=Little time/Mrs. and Mr. Cat
TTITLE6=Mellow moments/Closing Down
EXTD=
EXTT0=
EXTT1=
EXTT2=
EXTT3=
EXTT4=
EXTT5=
EXTT6=
PLAYORDER=
